<?xml version="1.0" encoding="UTF-8"?>
<svg id="_레이어_1" data-name="레이어 1" xmlns="http://www.w3.org/2000/svg" viewBox="0 0 874.4 844.49">
  <defs>
    <style>
      .cls-1 {
        fill: none;
        stroke: #000;
        stroke-miterlimit: 10;
      }
    </style>
  </defs>
  <path class="cls-1" d="M425.52.65l437.38-.15,11,13v36.36l-28,23.64h-337.78s-51.22-18-55.22,55-150,68-163,70-29,65-122,66-137.99,0-137.99,0l-20.01,19s-14,202.92,0,152.46S-28.1,178.5,24.9,216.5s137,60,189,63,9,126,9,126l22,23s151,2,170-11,0-54-4-35,14.6,34.64,26.3,38.32,32.7,4.68,32.7,4.68l94,94s204.66,29,245.33,0-60.33-234-91.33-42-386,294-427,308-267.19,58.5-267.19,58.5"/>
</svg>